<svg width="50" height="50" viewBox="0 0 50 50" fill="none" xmlns="http://www.w3.org/2000/svg">
<path fill-rule="evenodd" clip-rule="evenodd" d="M18.0166 0.0812752C17.4653 0.307893 17.2021 0.938496 17.4287 1.48977L22.6299 14.1428C23.006 15.0576 22.9302 16.4155 23.8431 16.7961V16.7961V16.7961C24.1478 16.9231 24.5053 16.9373 24.8188 16.8337C24.8433 16.8257 24.8676 16.8167 24.8918 16.8067V16.8067C25.8129 16.428 25.7365 15.0561 26.1195 14.1367L31.3767 1.51486C31.6058 0.964831 31.3457 0.33309 30.7958 0.103831C30.2458 -0.125428 29.6142 0.134609 29.3851 0.684642V0.684642C27.5388 5.11743 21.2507 5.11046 19.425 0.669108V0.669108C19.1984 0.117839 18.5678 -0.145343 18.0166 0.0812752Z" fill="#FCBD2F"/>
<path fill-rule="evenodd" clip-rule="evenodd" d="M2.8903 11.8322C2.65293 12.3793 2.90361 13.0153 3.45021 13.2529L16.0072 18.7103C16.9077 19.1017 17.7951 20.1137 18.7081 19.7525V19.7525V19.7525C19.0163 19.6306 19.2825 19.3886 19.4324 19.0928C19.4422 19.0735 19.4514 19.0538 19.4602 19.0337V19.0337C19.8531 18.1281 18.8623 17.2033 18.4999 16.285L13.47 3.53886C13.251 2.98411 12.6243 2.71214 12.07 2.93139C11.5158 3.15063 11.244 3.77808 11.4629 4.33282V4.33282C13.2267 8.80229 8.7139 13.1859 4.3098 11.2718V11.2718C3.76321 11.0342 3.12767 11.2851 2.8903 11.8322Z" fill="#FCBD2F"/>
<path fill-rule="evenodd" clip-rule="evenodd" d="M0.308667 31.0531C0.544677 31.6007 1.17996 31.8534 1.72761 31.6173L14.3367 26.1828C15.2273 25.799 16.5477 25.8324 16.9053 24.9309V24.9309V24.9309C17.0212 24.6388 17.0334 24.3007 16.9375 24.0014C16.9268 23.968 16.9145 23.9349 16.9003 23.9021V23.9021C16.5136 23.0047 15.1804 23.0837 14.2723 22.7228L1.517 17.6549C0.962801 17.4347 0.335281 17.7055 0.115398 18.2599C-0.104486 18.8142 0.16653 19.4421 0.720731 19.6623V19.6623C5.18807 21.4373 5.28752 27.7314 0.872946 29.6341V29.6341C0.325294 29.8701 0.0726578 30.5054 0.308667 31.0531Z" fill="#FCBD2F"/>
<path fill-rule="evenodd" clip-rule="evenodd" d="M10.8003 45.6861C11.3419 45.9347 11.9822 45.6966 12.2305 45.1544L17.9413 32.6843C18.3487 31.7945 19.369 30.9293 19.0282 30.0119V30.0119V30.0119C18.9151 29.7075 18.6868 29.4409 18.403 29.2836C18.3791 29.2704 18.3544 29.2579 18.3291 29.2463V29.2463C17.4348 28.8358 16.4929 29.8037 15.5708 30.1471L2.73274 34.9279C2.17435 35.1358 1.89004 35.7576 2.09771 36.3166C2.30539 36.8757 2.92641 37.1603 3.4848 36.9523V36.9523C7.98583 35.2762 12.271 39.8837 10.2694 44.2543V44.2543C10.0211 44.7965 10.2588 45.4375 10.8003 45.6861Z" fill="#FCBD2F"/>
<path fill-rule="evenodd" clip-rule="evenodd" d="M30.6956 49.9142C31.2484 49.6913 31.5159 49.0625 31.293 48.5097L26.1782 35.8216C25.8084 34.9042 25.8935 33.5468 24.9831 33.16V33.16V33.16C24.6794 33.031 24.3222 33.0143 24.0081 33.1155C23.9834 33.1234 23.9589 33.1323 23.9345 33.1422V33.1422C23.0107 33.5146 23.0778 34.8872 22.6886 35.804L17.3456 48.3895C17.1127 48.9379 17.3685 49.5714 17.9169 49.8044C18.4653 50.0374 19.0986 49.7817 19.3315 49.2333V49.2333C21.208 44.8132 27.4958 44.8631 29.2912 49.3167V49.3167C29.514 49.8695 30.1428 50.137 30.6956 49.9142Z" fill="#FCBD2F"/>
<path fill-rule="evenodd" clip-rule="evenodd" d="M45.7131 37.3892C45.9362 36.8362 45.6693 36.2067 45.1169 35.9833L32.4128 30.8455C31.5062 30.4788 30.5959 29.4979 29.6961 29.881V29.881V29.881C29.3975 30.0081 29.1419 30.2489 28.998 30.5402C28.9859 30.5646 28.9746 30.5898 28.9643 30.6155V30.6155C28.5957 31.529 29.6052 32.4266 29.9903 33.3332L35.3503 45.953C35.5834 46.5019 36.2168 46.7576 36.765 46.5242C37.3132 46.2908 37.5687 45.6566 37.3355 45.1077V45.1077C35.4563 40.6832 39.8563 36.1853 44.3089 37.9861V37.9861C44.8613 38.2095 45.49 37.9423 45.7131 37.3892Z" fill="#FCBD2F"/>
<path fill-rule="evenodd" clip-rule="evenodd" d="M49.7323 18.7673C49.498 18.2189 48.8635 17.9643 48.3151 18.1987L35.6891 23.595C34.7974 23.9761 33.4773 23.9387 33.1171 24.839V24.839V24.839C33.0002 25.1311 32.9871 25.4697 33.0825 25.7695C33.093 25.8025 33.1052 25.8352 33.119 25.8677V25.8677C33.503 26.7661 34.836 26.6914 35.7429 27.0549L48.4832 32.1619C49.0367 32.3838 49.665 32.1148 49.8866 31.5611C50.1082 31.0075 49.8391 30.3788 49.2856 30.1569V30.1569C44.8236 28.3683 44.7433 22.0738 49.1637 20.1845V20.1845C49.7121 19.9502 49.9667 19.3156 49.7323 18.7673Z" fill="#FCBD2F"/>
<path fill-rule="evenodd" clip-rule="evenodd" d="M36.9593 2.9071C36.4005 2.70017 35.7801 2.98588 35.5735 3.54526L30.8218 16.4088C30.4823 17.3279 29.5279 18.2686 29.9375 19.1587V19.1587V19.1587C30.0739 19.4551 30.3236 19.7047 30.6205 19.8397C30.6443 19.8505 30.6686 19.8606 30.6934 19.8698V19.8698C31.6171 20.2119 32.4836 19.1734 33.378 18.7608L45.8156 13.0242C46.3567 12.7747 46.5932 12.1332 46.3439 11.5915C46.0947 11.0498 45.454 10.8129 44.913 11.0624V11.0624C40.5518 13.0739 35.9312 8.80362 37.5968 4.29464V4.29464C37.8034 3.73526 37.518 3.11404 36.9593 2.9071Z" fill="#FCBD2F"/>
<path d="M30.8677 25.1244C30.8677 28.3178 28.2823 30.9055 25.0942 30.9055C21.9062 30.9055 19.3207 28.3178 19.3207 25.1244C19.3207 21.931 21.9062 19.3433 25.0942 19.3433C28.2823 19.3433 30.8677 21.931 30.8677 25.1244Z" fill="white" stroke="#FCBD2F"/>
</svg>
